<?xml version="1.0" standalone="no"?>
<!DOCTYPE svg PUBLIC "-//W3C//DTD SVG 20010904//EN"
 "http://www.w3.org/TR/2001/REC-SVG-20010904/DTD/svg10.dtd">
<svg version="1.0" xmlns="http://www.w3.org/2000/svg"
 width="1024.000000pt" height="318.000000pt" viewBox="0 0 1024.000000 318.000000"
 preserveAspectRatio="xMidYMid meet">

<g transform="translate(0.000000,318.000000) scale(0.100000,-0.100000)"
fill="#000000" stroke="none">
<path d="M130 211 c0 -53 -13 -72 -29 -44 -5 10 -13 14 -17 10 -4 -4 0 -15 9
-25 29 -28 51 -5 55 57 2 31 -1 51 -7 51 -6 0 -11 -22 -11 -49z"/>
<path d="M512 200 c0 -36 2 -56 5 -45 2 11 6 30 9 43 7 35 28 21 35 -24 l7
-39 -2 45 c-1 38 -4 45 -21 45 -11 0 -23 9 -27 20 -3 11 -6 -9 -6 -45z"/>
<path d="M640 200 c0 -33 4 -60 10 -60 6 0 10 14 10 30 0 27 3 30 29 30 26 0
30 -4 34 -32 2 -18 4 -4 4 32 0 36 -2 53 -4 38 -4 -23 -9 -28 -34 -28 -24 0
-29 4 -29 25 0 14 -4 25 -10 25 -6 0 -10 -27 -10 -60z"/>
<path d="M900 240 c0 -13 -5 -18 -15 -14 -21 8 -45 -14 -45 -41 0 -28 19 -45
48 -42 20 1 22 7 22 59 0 32 -2 58 -5 58 -3 0 -5 -9 -5 -20z m-5 -56 c0 -32
-21 -39 -38 -12 -8 12 -7 21 3 32 19 24 35 14 35 -20z"/>
<path d="M932 200 c-1 -62 0 -64 12 -35 l13 30 13 -27 c7 -16 17 -28 22 -28 5
0 1 14 -7 31 -14 25 -14 33 -3 47 11 15 10 15 -8 0 -28 -24 -32 -23 -37 15 -2
17 -4 3 -5 -33z"/>
<path d="M1141 204 l-1 -61 31 1 c37 1 52 27 38 65 -7 18 -15 22 -34 19 -18
-4 -25 0 -28 16 -2 12 -5 -6 -6 -40z m57 -13 c5 -34 -16 -51 -33 -27 -10 14
-11 24 -4 38 13 24 33 18 37 -11z"/>
<path d="M1732 200 c0 -49 2 -58 7 -34 16 65 41 74 41 14 0 -22 5 -40 11 -40
6 0 9 17 7 43 -3 37 -6 42 -28 42 -16 0 -27 7 -32 20 -3 11 -6 -9 -6 -45z"/>
<path d="M1823 200 c-1 -55 0 -59 7 -27 4 20 10 40 13 43 13 13 27 -9 27 -42
0 -19 5 -34 10 -34 12 0 13 60 1 79 -5 8 -18 12 -29 9 -16 -4 -22 0 -25 16 -2
11 -4 -8 -4 -44z"/>
<path d="M2050 241 c0 -14 -5 -18 -18 -14 -28 7 -47 -23 -36 -55 7 -21 16 -27
42 -29 l32 -1 0 59 c0 33 -4 59 -10 59 -5 0 -10 -9 -10 -19z m-5 -57 c0 -19
-5 -29 -15 -29 -16 0 -25 28 -16 51 10 25 31 10 31 -22z"/>
<path d="M2080 200 c0 -33 4 -60 10 -60 6 0 10 9 10 20 0 26 7 25 31 -3 22
-26 25 -11 4 17 -13 17 -13 22 2 38 20 23 6 24 -19 1 -17 -15 -18 -14 -18 15
0 18 -4 32 -10 32 -6 0 -10 -27 -10 -60z"/>
<path d="M2340 200 c0 -66 17 -83 22 -22 4 52 31 50 39 -3 l7 -40 -2 45 c-1
40 -4 45 -23 44 -16 0 -23 5 -23 18 0 10 -4 18 -10 18 -6 0 -10 -27 -10 -60z"/>
<path d="M177 223 c-14 -13 -7 -25 8 -13 8 6 19 9 25 5 17 -11 11 -23 -12 -27
-15 -2 -23 -10 -23 -23 0 -16 7 -20 33 -20 29 -1 32 2 32 30 0 17 -5 36 -12
43 -13 13 -41 16 -51 5z m43 -52 c0 -14 -18 -23 -30 -16 -6 4 -8 11 -5 16 8
12 35 12 35 0z"/>
<path d="M265 189 c8 -23 15 -45 15 -50 0 -5 -46 -10 -102 -11 l-103 -2 100
-5 c55 -3 287 -4 515 -1 l415 5 -407 3 c-225 1 -408 4 -408 6 0 2 7 23 15 46
18 52 12 66 -8 19 l-14 -34 -7 33 c-4 17 -12 32 -16 32 -5 0 -3 -19 5 -41z"/>
<path d="M354 222 c-32 -22 -18 -85 18 -80 12 2 24 10 26 18 5 13 3 13 -11 2
-9 -8 -21 -11 -27 -7 -20 12 -10 25 20 25 31 0 39 17 18 38 -14 14 -28 15 -44
4z m34 -20 c2 -7 -6 -12 -17 -12 -21 0 -27 11 -14 24 9 9 26 2 31 -12z"/>
<path d="M437 223 c-15 -14 -6 -34 20 -44 20 -7 23 -13 15 -21 -9 -9 -15 -9
-24 0 -18 18 -33 15 -18 -3 17 -20 54 -15 58 7 2 12 -6 21 -23 28 -15 6 -23
15 -20 21 4 6 13 8 21 5 8 -3 14 -1 14 4 0 11 -33 14 -43 3z"/>
<path d="M767 224 c-14 -14 -7 -26 8 -14 12 10 19 10 27 2 8 -8 7 -13 -5 -17
-9 -3 -24 -7 -33 -10 -8 -3 -14 -13 -12 -22 2 -13 14 -18 39 -19 l35 -2 -5 42
c-5 31 -11 42 -26 44 -12 2 -24 0 -28 -4z m41 -56 c-7 -19 -38 -22 -38 -4 0
10 9 16 21 16 12 0 19 -5 17 -12z"/>
<path d="M1022 218 c-16 -16 -15 -53 3 -68 18 -15 47 -10 53 10 5 13 3 13 -12
1 -15 -12 -19 -12 -34 2 -15 16 -14 17 16 17 25 0 32 4 32 19 0 28 -37 40 -58
19z m46 -16 c2 -7 -7 -12 -23 -12 -24 0 -26 2 -15 15 14 17 31 16 38 -3z"/>
<path d="M1235 210 c3 -14 8 -38 12 -54 4 -19 1 -31 -8 -37 -11 -7 -11 -9 3
-9 11 0 22 19 36 60 12 33 17 60 13 60 -5 0 -13 -15 -18 -32 l-10 -33 -16 35
c-12 25 -16 28 -12 10z"/>
<path d="M1360 176 c0 -34 -5 -56 -12 -59 -8 -3 -6 -6 5 -6 14 -1 17 8 17 59
0 33 -2 60 -5 60 -3 0 -5 -24 -5 -54z"/>
<path d="M1407 224 c-4 -4 -7 -12 -7 -18 0 -6 5 -5 12 2 16 16 28 15 28 -2 0
-8 -10 -16 -22 -18 -15 -2 -23 -10 -23 -23 0 -16 7 -20 35 -21 l36 -1 -6 41
c-4 31 -10 42 -25 44 -12 2 -24 0 -28 -4z m33 -53 c0 -14 -18 -23 -30 -16 -6
4 -8 11 -5 16 8 12 35 12 35 0z"/>
<path d="M1487 185 c12 -36 13 -49 3 -60 -9 -11 -9 -15 -1 -15 13 0 36 49 45
96 6 28 5 27 -10 -6 l-17 -35 -9 33 c-5 17 -13 32 -18 32 -5 0 -2 -20 7 -45z"/>
<path d="M1572 218 c-20 -20 -15 -66 8 -73 20 -6 56 12 45 23 -2 3 -11 -1 -19
-7 -8 -7 -20 -10 -26 -6 -20 12 -10 25 20 25 18 0 30 5 30 13 0 16 -20 37 -35
37 -6 0 -16 -5 -23 -12z m29 -26 c-28 -4 -40 6 -21 18 9 6 20 4 29 -3 12 -10
11 -13 -8 -15z"/>
<path d="M1657 224 c-15 -15 -6 -35 20 -45 19 -7 23 -13 15 -21 -8 -8 -16 -7
-28 3 -15 12 -17 12 -12 -1 7 -21 52 -19 56 2 2 12 -6 21 -24 28 -20 8 -24 14
-16 22 8 8 16 7 28 -3 15 -12 17 -12 12 1 -5 16 -39 25 -51 14z"/>
<path d="M1917 224 c-14 -14 -7 -26 8 -14 12 10 19 10 27 2 8 -8 6 -13 -8 -18
-52 -19 -53 -54 0 -52 31 1 32 2 26 42 -4 31 -10 42 -25 44 -12 2 -24 0 -28
-4z m41 -56 c-7 -19 -38 -22 -38 -4 0 10 9 16 21 16 12 0 19 -5 17 -12z"/>
<path d="M2168 204 c-9 -18 -9 -30 -1 -42 13 -21 55 -22 61 -2 4 13 3 13 -11
2 -9 -8 -21 -11 -27 -7 -20 12 -10 25 20 25 33 0 35 3 20 31 -15 27 -48 24
-62 -7z m50 -2 c2 -7 -6 -12 -17 -12 -21 0 -27 11 -14 24 9 9 26 2 31 -12z"/>
<path d="M2262 184 c-1 -27 -7 -55 -14 -62 -9 -9 -9 -12 0 -12 18 0 24 21 19
76 l-3 49 -2 -51z"/>
<path d="M2291 180 c1 -43 1 -44 9 -13 4 18 13 39 19 47 10 12 9 15 -8 13 -18
-1 -21 -8 -20 -47z"/>
</g>
</svg>
